<svg width="1280" height="34" viewBox="0 0 1280 34" fill="none" xmlns="http://www.w3.org/2000/svg">
<path fill-rule="evenodd" clip-rule="evenodd" d="M-11.7064 -10.5757C-11.3185 -11.0514 -8.45449 -9.96362 -6.2886 -9.96362C-4.29467 -9.96362 -1.79918 -10.5924 -1.3007 -10.5924C-0.78993 -10.5924 1.77414 -10.1243 3.8172 -10.1243C5.87255 -10.1243 8.42126 -10.9794 8.93509 -10.9794C9.44893 -10.9794 11.9976 -10.1501 14.053 -10.1501C16.0961 -10.1501 18.6601 -10.5898 19.1709 -10.5898C19.6827 -10.5898 22.2416 -10.2966 24.2888 -10.2966C26.3359 -10.2966 28.8949 -10.3661 29.4067 -10.3661C29.9174 -10.3661 32.4815 -10.3095 34.5246 -10.3095C36.5758 -10.3095 39.1297 -10.8997 39.6425 -10.8997C40.1553 -10.8997 42.7091 -10.5024 44.7604 -10.5024C46.8075 -10.5024 49.3665 -10.5872 49.8783 -10.5872C50.39 -10.5872 52.949 -10.0562 54.9962 -10.0562C57.0433 -10.0562 59.6023 -10.5988 60.1141 -10.5988C60.6248 -10.5988 63.1889 -9.7656 65.2319 -9.7656C67.2832 -9.7656 69.837 -10.7647 70.3498 -10.7647C70.8616 -10.7647 73.4206 -10.0022 75.4677 -10.0022C77.5149 -10.0022 80.0738 -10.7518 80.5856 -10.7518C81.0974 -10.7518 83.6564 -10.3764 85.7035 -10.3764C87.7548 -10.3764 90.3086 -10.9447 90.8214 -10.9447C91.3332 -10.9447 93.8922 -10.7544 95.9393 -10.7544C97.9865 -10.7544 100.545 -10.7377 101.057 -10.7377C101.569 -10.7377 104.128 -10.6708 106.175 -10.6708C108.222 -10.6708 110.781 -10.5564 111.293 -10.5564C111.805 -10.5564 114.364 -10.5512 116.411 -10.5512C118.462 -10.5512 121.016 -10.9781 121.529 -10.9781C122.041 -10.9781 124.6 -10.811 126.647 -10.811C128.694 -10.811 131.253 -10.6168 131.765 -10.6168C132.276 -10.6168 134.835 -10.3969 136.882 -10.3969C138.93 -10.3969 141.489 -10.4548 142 -10.4548C142.512 -10.4548 145.071 -10.5692 147.118 -10.5692C149.165 -10.5692 151.724 -10.3841 152.236 -10.3841C152.748 -10.3841 155.307 -10.2786 157.354 -10.2786C159.401 -10.2786 161.96 -10.622 162.472 -10.622C162.984 -10.622 165.543 -10.496 167.59 -10.496C169.637 -10.496 172.196 -10.4805 172.708 -10.4805C173.22 -10.4805 175.778 -9.77203 177.826 -9.77203C179.873 -9.77203 182.432 -10.3879 182.944 -10.3879C183.453 -10.3879 186.022 -10.0665 188.061 -10.0665C190.121 -10.0665 192.664 -10.9833 193.179 -10.9833C193.693 -10.9833 196.242 -10.3597 198.297 -10.3597C200.34 -10.3597 202.904 -10.3854 203.415 -10.3854C203.927 -10.3854 206.486 -9.82475 208.533 -9.82475C210.58 -9.82475 213.139 -10.4304 213.651 -10.4304C214.162 -10.4304 216.726 -10.0703 218.769 -10.0703C220.82 -10.0703 223.374 -10.712 223.887 -10.712C224.398 -10.712 226.957 -10.1102 229.005 -10.1102C231.052 -10.1102 233.611 -10.6593 234.122 -10.6593C234.634 -10.6593 237.193 -10.6258 239.24 -10.6258C241.288 -10.6258 243.846 -10.8688 244.358 -10.8688C244.871 -10.8688 247.425 -10.4638 249.476 -10.4638C251.523 -10.4638 254.082 -10.523 254.594 -10.523C255.105 -10.523 257.669 -9.87618 259.712 -9.87618C261.763 -9.87618 264.317 -10.7145 264.83 -10.7145C265.341 -10.7145 267.905 -10.8598 269.948 -10.8598C271.999 -10.8598 274.553 -10.3661 275.066 -10.3661C275.576 -10.3661 278.14 -10.1372 280.184 -10.1372C282.235 -10.1372 284.789 -10.6515 285.301 -10.6515C285.813 -10.6515 288.372 -9.87104 290.419 -9.87104C292.466 -9.87104 295.025 -10.6335 295.537 -10.6335C296.049 -10.6335 298.608 -10.1333 300.655 -10.1333C302.706 -10.1333 305.26 -10.7788 305.773 -10.7788C306.286 -10.7788 308.84 -10.1591 310.891 -10.1591C312.934 -10.1591 315.498 -10.613 316.009 -10.613C316.521 -10.613 319.08 -10.7737 321.127 -10.7737C323.174 -10.7737 325.733 -10.82 326.245 -10.82C326.757 -10.82 329.311 -10.3622 331.362 -10.3622C333.41 -10.3622 335.969 -10.577 336.48 -10.577C336.992 -10.577 339.551 -10.9126 341.598 -10.9126C343.645 -10.9126 346.204 -10.8431 346.716 -10.8431C347.228 -10.8431 349.787 -9.9649 351.834 -9.9649C353.881 -9.9649 356.44 -10.7711 356.952 -10.7711C357.464 -10.7711 360.023 -10.7827 362.07 -10.7827C364.117 -10.7827 366.676 -10.7737 367.188 -10.7737C367.7 -10.7737 370.259 -10.8277 372.306 -10.8277C374.353 -10.8277 376.912 -11 377.424 -11C377.936 -11 380.49 -10.514 382.541 -10.514C384.589 -10.514 387.148 -10.7866 387.659 -10.7866C388.17 -10.7866 390.734 -10.2645 392.777 -10.2645C394.824 -10.2645 397.383 -10.9241 397.895 -10.9241C398.409 -10.9241 400.958 -9.97776 403.013 -9.97776C405.052 -9.97776 407.621 -10.4214 408.131 -10.4214C408.644 -10.4214 411.198 -10.7261 413.249 -10.7261C415.296 -10.7261 417.855 -10.9897 418.367 -10.9897C418.881 -10.9897 421.429 -10.0446 423.485 -10.0446C425.524 -10.0446 428.093 -10.5461 428.603 -10.5461C429.114 -10.5461 431.673 -10.6104 433.72 -10.6104C435.768 -10.6104 438.327 -10.8753 438.838 -10.8753C439.35 -10.8753 441.909 -10.7428 443.956 -10.7428C446.003 -10.7428 448.562 -10.4857 449.074 -10.4857C449.585 -10.4857 452.149 -9.97133 454.192 -9.97133C456.243 -9.97133 458.797 -10.73 459.31 -10.73C459.821 -10.73 462.385 -9.96362 464.428 -9.96362C466.479 -9.96362 469.033 -10.8393 469.546 -10.8393C470.06 -10.8393 472.608 -9.9829 474.664 -9.9829C476.707 -9.9829 479.271 -10.4677 479.781 -10.4677C480.293 -10.4677 482.852 -10.2774 484.899 -10.2774C486.947 -10.2774 489.505 -10.5667 490.017 -10.5667C490.528 -10.5667 493.092 -10.2015 495.135 -10.2015C497.191 -10.2015 499.739 -10.9961 500.253 -10.9961C500.766 -10.9961 503.32 -10.0935 505.371 -10.0935C507.414 -10.0935 509.978 -10.7364 510.489 -10.7364C511.001 -10.7364 513.56 -10.9807 515.607 -10.9807C517.654 -10.9807 520.213 -10.5397 520.725 -10.5397C521.236 -10.5397 523.795 -9.83503 525.843 -9.83503C527.89 -9.83503 530.449 -10.5782 530.96 -10.5782C531.472 -10.5782 534.031 -10.2774 536.078 -10.2774C538.125 -10.2774 540.684 -10.5782 541.196 -10.5782C541.706 -10.5782 544.275 -9.71802 546.314 -9.71802C548.369 -9.71802 550.918 -10.8933 551.432 -10.8933C551.944 -10.8933 554.503 -10.8727 556.55 -10.8727C558.601 -10.8727 561.155 -10.3854 561.668 -10.3854C562.179 -10.3854 564.743 -10.0703 566.786 -10.0703C568.837 -10.0703 571.391 -10.64 571.904 -10.64C572.414 -10.64 574.978 -9.78617 577.021 -9.78617C579.073 -9.78617 581.627 -10.8611 582.139 -10.8611C582.654 -10.8611 585.198 -9.78103 587.257 -9.78103C589.296 -9.78103 591.865 -10.3687 592.375 -10.3687C592.888 -10.3687 595.442 -10.9897 597.493 -10.9897C599.536 -10.9897 602.1 -10.8496 602.611 -10.8496C603.122 -10.8496 605.686 -9.78746 607.729 -9.78746C609.78 -9.78746 612.334 -10.9653 612.847 -10.9653C613.36 -10.9653 615.913 -10.1051 617.965 -10.1051C620.008 -10.1051 622.572 -10.6567 623.083 -10.6567C623.595 -10.6567 626.149 -9.7746 628.2 -9.7746C630.244 -9.7746 632.808 -10.4304 633.318 -10.4304C633.83 -10.4304 636.389 -10.3429 638.436 -10.3429C640.483 -10.3429 643.042 -10.4111 643.554 -10.4111C644.065 -10.4111 646.629 -10.1655 648.672 -10.1655C650.727 -10.1655 653.276 -10.937 653.79 -10.937C654.304 -10.937 656.852 -10.1333 658.908 -10.1333C660.951 -10.1333 663.515 -10.4432 664.026 -10.4432C664.535 -10.4432 667.105 -10.0408 669.144 -10.0408C671.203 -10.0408 673.747 -10.9743 674.262 -10.9743C674.773 -10.9743 677.332 -10.5847 679.379 -10.5847C681.427 -10.5847 683.986 -10.901 684.497 -10.901C685.009 -10.901 687.568 -10.7313 689.615 -10.7313C691.662 -10.7313 694.221 -10.6618 694.733 -10.6618C695.245 -10.6618 697.804 -10.7133 699.851 -10.7133C701.898 -10.7133 704.457 -10.9537 704.969 -10.9537C705.481 -10.9537 708.04 -10.8586 710.087 -10.8586C712.134 -10.8586 714.693 -10.7981 715.205 -10.7981C715.716 -10.7981 718.275 -9.88647 720.323 -9.88647C722.37 -9.88647 724.929 -10.811 725.44 -10.811C725.951 -10.811 728.515 -10.0703 730.558 -10.0703C732.61 -10.0703 735.163 -10.964 735.676 -10.964C736.188 -10.964 738.747 -10.2864 740.794 -10.2864C742.841 -10.2864 745.4 -10.9949 745.912 -10.9949C746.424 -10.9949 748.983 -10.8688 751.03 -10.8688C753.081 -10.8688 755.635 -10.3648 756.148 -10.3648C756.661 -10.3648 759.214 -10.748 761.266 -10.748C763.313 -10.748 765.872 -10.9241 766.384 -10.9241C766.896 -10.9241 769.45 -9.73474 771.502 -9.73474C773.549 -9.73474 776.108 -10.8496 776.619 -10.8496C777.132 -10.8496 779.686 -9.84275 781.737 -9.84275C783.78 -9.84275 786.344 -10.5885 786.855 -10.5885C787.367 -10.5885 789.926 -10.3764 791.973 -10.3764C794.02 -10.3764 796.579 -10.7531 797.091 -10.7531C797.603 -10.7531 800.162 -10.1693 802.209 -10.1693C804.256 -10.1693 806.815 -10.7994 807.327 -10.7994C807.84 -10.7994 810.393 -10.1539 812.445 -10.1539C814.488 -10.1539 817.052 -10.4612 817.563 -10.4612C818.074 -10.4612 820.633 -10.3198 822.68 -10.3198C824.728 -10.3198 827.287 -10.5332 827.798 -10.5332C828.31 -10.5332 830.869 -10.9138 832.916 -10.9138C834.963 -10.9138 837.522 -10.4175 838.034 -10.4175C838.546 -10.4175 841.105 -10.6708 843.152 -10.6708C845.199 -10.6708 847.758 -10.8303 848.27 -10.8303C848.782 -10.8303 851.341 -10.694 853.388 -10.694C855.435 -10.694 857.994 -10.9589 858.506 -10.9589C859.02 -10.9589 861.568 -9.93533 863.624 -9.93533C865.667 -9.93533 868.231 -10.667 868.742 -10.667C869.253 -10.667 871.812 -10.2722 873.859 -10.2722C875.907 -10.2722 878.466 -10.6747 878.977 -10.6747C879.49 -10.6747 882.044 -9.97262 884.095 -9.97262C886.142 -9.97262 888.701 -10.5461 889.213 -10.5461C889.725 -10.5461 892.284 -10.6708 894.331 -10.6708C896.378 -10.6708 898.937 -10.4998 899.449 -10.4998C899.96 -10.4998 902.524 -9.9469 904.567 -9.9469C906.622 -9.9469 909.171 -10.8753 909.685 -10.8753C910.196 -10.8753 912.755 -10.2632 914.803 -10.2632C916.85 -10.2632 919.409 -10.8058 919.92 -10.8058C920.431 -10.8058 922.995 -9.95462 925.038 -9.95462C927.09 -9.95462 929.643 -10.9614 930.156 -10.9614C930.669 -10.9614 933.223 -10.2786 935.274 -10.2786C937.317 -10.2786 939.881 -10.8007 940.392 -10.8007C940.904 -10.8007 943.463 -10.2864 945.51 -10.2864C947.557 -10.2864 950.116 -10.7557 950.628 -10.7557C951.141 -10.7557 953.695 -9.99062 955.746 -9.99062C957.789 -9.99062 960.353 -10.6232 960.864 -10.6232C961.375 -10.6232 963.934 -10.8946 965.982 -10.8946C968.029 -10.8946 970.588 -10.8946 971.099 -10.8946C971.611 -10.8946 974.17 -10.6683 976.217 -10.6683C978.265 -10.6683 980.823 -10.9563 981.335 -10.9563C981.848 -10.9563 984.402 -10.5551 986.453 -10.5551C988.5 -10.5551 991.059 -10.6297 991.571 -10.6297C992.083 -10.6297 994.642 -10.4368 996.689 -10.4368C998.736 -10.4368 1001.3 -10.6027 1001.81 -10.6027C1002.32 -10.6027 1004.88 -9.71931 1006.92 -9.71931C1008.98 -9.71931 1011.53 -10.694 1012.04 -10.694C1012.55 -10.694 1015.11 -10.4715 1017.16 -10.4715C1019.21 -10.4715 1021.77 -10.4047 1022.28 -10.4047C1022.79 -10.4047 1025.35 -10.7338 1027.4 -10.7338C1029.44 -10.7338 1032 -10.6001 1032.51 -10.6001C1033.03 -10.6001 1035.58 -10.2079 1037.63 -10.2079C1039.68 -10.2079 1042.24 -10.5217 1042.75 -10.5217C1043.26 -10.5217 1045.82 -10.1578 1047.87 -10.1578C1049.92 -10.1578 1052.47 -10.4059 1052.99 -10.4059C1053.5 -10.4059 1056.06 -10.4484 1058.1 -10.4484C1060.15 -10.4484 1062.71 -10.757 1063.22 -10.757C1063.73 -10.757 1066.29 -10.4985 1068.34 -10.4985C1070.39 -10.4985 1072.95 -10.766 1073.46 -10.766C1073.97 -10.766 1076.53 -10.838 1078.58 -10.838C1080.62 -10.838 1083.18 -10.9524 1083.69 -10.9524C1084.21 -10.9524 1086.76 -10.4497 1088.81 -10.4497C1090.85 -10.4497 1093.42 -10.6297 1093.93 -10.6297C1094.44 -10.6297 1097 -10.2131 1099.05 -10.2131C1101.09 -10.2131 1103.65 -10.5371 1104.16 -10.5371C1104.68 -10.5371 1107.24 -10.5641 1109.28 -10.5641C1111.33 -10.5641 1113.89 -10.6194 1114.4 -10.6194C1114.91 -10.6194 1117.47 -10.7866 1119.52 -10.7866C1121.57 -10.7866 1124.12 -10.8187 1124.64 -10.8187C1125.15 -10.8187 1127.7 -10.1321 1129.75 -10.1321C1131.8 -10.1321 1134.36 -10.6117 1134.87 -10.6117C1135.39 -10.6117 1137.94 -9.84403 1139.99 -9.84403C1142.04 -9.84403 1144.6 -10.5024 1145.11 -10.5024C1145.62 -10.5024 1148.18 -10.4394 1150.23 -10.4394C1152.28 -10.4394 1154.83 -10.8496 1155.34 -10.8496C1155.86 -10.8496 1158.41 -10.0703 1160.46 -10.0703C1162.51 -10.0703 1165.07 -10.7467 1165.58 -10.7467C1166.09 -10.7467 1168.65 -10.3056 1170.7 -10.3056C1172.74 -10.3056 1175.3 -10.5924 1175.82 -10.5924C1176.33 -10.5924 1178.89 -10.9396 1180.93 -10.9396C1182.98 -10.9396 1185.54 -10.5487 1186.05 -10.5487C1186.56 -10.5487 1189.13 -9.90833 1191.17 -9.90833C1193.22 -9.90833 1195.77 -10.7737 1196.29 -10.7737C1196.8 -10.7737 1199.36 -10.5435 1201.4 -10.5435C1203.45 -10.5435 1206.01 -10.6117 1206.52 -10.6117C1207.03 -10.6117 1209.59 -10.9653 1211.64 -10.9653C1213.69 -10.9653 1216.25 -10.4741 1216.76 -10.4741C1217.27 -10.4741 1219.83 -10.3558 1221.88 -10.3558C1223.92 -10.3558 1226.48 -10.5062 1226.99 -10.5062C1227.51 -10.5062 1230.07 -10.4265 1232.11 -10.4265C1234.16 -10.4265 1236.72 -10.5178 1237.23 -10.5178C1237.74 -10.5178 1240.3 -9.85046 1242.35 -9.85046C1244.4 -9.85046 1246.95 -10.7158 1247.47 -10.7158C1247.98 -10.7158 1250.54 -9.88775 1252.58 -9.88775C1254.64 -9.88775 1257.19 -10.9113 1257.7 -10.9113C1258.22 -10.9113 1260.76 -9.85818 1262.82 -9.85818C1264.86 -9.85818 1267.43 -10.496 1267.94 -10.496C1268.45 -10.496 1271.01 -10.9537 1273.06 -10.9537C1275.1 -10.9537 1277.66 -10.5808 1278.17 -10.5808C1278.69 -10.5808 1281.24 -10.7698 1283.29 -10.7698C1285.34 -10.7698 1287.9 -10.9357 1288.41 -10.9357C1288.9 -10.9357 1291.36 -9.78874 1293.34 -9.78874C1295.53 -9.78874 1298.49 -11.1003 1298.85 -10.5834C1299.24 -10.0189 1298.63 -6.0701 1298.63 -3.06125C1298.63 -0.150114 1298.92 3.48752 1298.92 4.2153C1298.92 4.94437 1298.69 8.58586 1298.69 11.5021C1298.69 14.4184 1298.99 18.0599 1298.99 18.789C1298.99 19.4975 1298.23 23.0258 1298.23 25.8598C1298.23 28.9715 1299.32 33.0695 1298.91 33.6532C1298.54 34.1766 1295.58 32.829 1293.35 32.829C1291.37 32.829 1288.9 33.5491 1288.41 33.5491C1287.9 33.5491 1285.34 33.7445 1283.29 33.7445C1281.24 33.7445 1278.69 33.8808 1278.17 33.8808C1277.66 33.8808 1275.1 33.6918 1273.06 33.6918C1271.01 33.6918 1268.45 33.6211 1267.94 33.6211C1267.43 33.6211 1264.87 33.4102 1262.82 33.4102C1260.77 33.4102 1258.21 33.7291 1257.7 33.7291C1257.19 33.7291 1254.64 32.7339 1252.58 32.7339C1250.54 32.7339 1247.98 33.6198 1247.47 33.6198C1246.96 33.6198 1244.39 33.2623 1242.35 33.2623C1240.3 33.2623 1237.74 33.9374 1237.23 33.9374C1236.72 33.9374 1234.16 32.7403 1232.11 32.7403C1230.07 32.7403 1227.51 33.7471 1226.99 33.7471C1226.48 33.7471 1223.92 33.6391 1221.88 33.6391C1219.83 33.6391 1217.27 33.5645 1216.76 33.5645C1216.25 33.5645 1213.69 33.6378 1211.64 33.6378C1209.59 33.6378 1207.03 33.8885 1206.52 33.8885C1206.01 33.8885 1203.45 33.5902 1201.4 33.5902C1199.36 33.5902 1196.8 33.6751 1196.29 33.6751C1195.78 33.6751 1193.22 33.7304 1191.17 33.7304C1189.12 33.7304 1186.56 33.4732 1186.05 33.4732C1185.54 33.4732 1182.98 33.2906 1180.93 33.2906C1178.89 33.2906 1176.33 33.4912 1175.82 33.4912C1175.3 33.4912 1172.74 33.6172 1170.7 33.6172C1168.65 33.6172 1166.09 33.6918 1165.58 33.6918C1165.07 33.6918 1162.51 33.18 1160.46 33.18C1158.41 33.18 1155.86 33.6417 1155.34 33.6417C1154.83 33.6417 1152.27 33.3819 1150.23 33.3819C1148.18 33.3819 1145.62 33.688 1145.11 33.688C1144.6 33.688 1142.04 33.2058 1139.99 33.2058C1137.94 33.2058 1135.38 33.4218 1134.87 33.4218C1134.36 33.4218 1131.8 33.1569 1129.75 33.1569C1127.7 33.1569 1125.15 33.976 1124.64 33.976C1124.12 33.976 1121.57 32.9383 1119.52 32.9383C1117.47 32.9383 1114.91 33.9464 1114.4 33.9464C1113.89 33.9464 1111.33 33.8165 1109.28 33.8165C1107.24 33.8165 1104.68 33.9014 1104.16 33.9014C1103.65 33.9014 1101.1 33.3884 1099.05 33.3884C1097 33.3884 1094.44 33.5272 1093.93 33.5272C1093.42 33.5272 1090.85 32.73 1088.81 32.73C1086.75 32.73 1084.21 33.9901 1083.69 33.9901C1083.18 33.9901 1080.63 33.2148 1078.58 33.2148C1076.53 33.2148 1073.97 33.4539 1073.46 33.4539C1072.95 33.4539 1070.39 33.4578 1068.34 33.4578C1066.29 33.4578 1063.73 33.832 1063.22 33.832C1062.71 33.832 1060.15 33.5632 1058.1 33.5632C1056.06 33.5632 1053.5 33.9065 1052.99 33.9065C1052.47 33.9065 1049.92 33.6082 1047.87 33.6082C1045.82 33.6082 1043.26 33.8011 1042.75 33.8011C1042.24 33.8011 1039.69 32.7814 1037.63 32.7814C1035.59 32.7814 1033.03 33.5208 1032.51 33.5208C1032 33.5208 1029.44 33.6957 1027.4 33.6957C1025.35 33.6957 1022.79 33.7098 1022.28 33.7098C1021.77 33.7098 1019.21 33.6957 1017.16 33.6957C1015.11 33.6957 1012.55 33.4231 1012.04 33.4231C1011.53 33.4231 1008.97 33.6249 1006.92 33.6249C1004.88 33.6249 1002.32 33.4051 1001.81 33.4051C1001.3 33.4051 998.732 33.2572 996.689 33.2572C994.634 33.2572 992.085 33.931 991.571 33.931C991.059 33.931 988.5 33.8538 986.453 33.8538C984.406 33.8538 981.847 33.5979 981.335 33.5979C980.823 33.5979 978.265 33.4334 976.217 33.4334C974.17 33.4334 971.611 33.7998 971.099 33.7998C970.587 33.7998 968.033 33.1903 965.982 33.1903C963.938 33.1903 961.374 33.5992 960.864 33.5992C960.352 33.5992 957.793 33.1968 955.746 33.1968C953.699 33.1968 951.14 33.5864 950.628 33.5864C950.116 33.5864 947.557 33.1325 945.51 33.1325C943.463 33.1325 940.904 33.5504 940.392 33.5504C939.88 33.5504 937.321 33.3639 935.274 33.3639C933.223 33.3639 930.669 33.8397 930.156 33.8397C929.644 33.8397 927.086 33.8243 925.038 33.8243C922.987 33.8243 920.433 33.4346 919.92 33.4346C919.409 33.4346 916.85 33.135 914.803 33.135C912.755 33.135 910.196 33.4449 909.685 33.4449C909.173 33.4449 906.614 33.2521 904.567 33.2521C902.52 33.2521 899.961 33.5529 899.449 33.5529C898.937 33.5529 896.378 33.5015 894.331 33.5015C892.284 33.5015 889.725 33.5735 889.213 33.5735C888.702 33.5735 886.138 33.4244 884.095 33.4244C882.044 33.4244 879.49 33.9438 878.977 33.9438C878.466 33.9438 875.907 33.3073 873.859 33.3073C871.812 33.3073 869.253 33.8371 868.742 33.8371C868.23 33.8371 865.671 33.2122 863.624 33.2122C861.576 33.2122 859.018 33.8963 858.506 33.8963C857.994 33.8963 855.435 33.9708 853.388 33.9708C851.337 33.9708 848.783 33.4809 848.27 33.4809C847.759 33.4809 845.195 32.964 843.152 32.964C841.097 32.964 838.548 33.8217 838.034 33.8217C837.522 33.8217 834.963 33.6134 832.916 33.6134C830.869 33.6134 828.31 33.4462 827.798 33.4462C827.287 33.4462 824.728 33.6327 822.68 33.6327C820.633 33.6327 818.074 33.6931 817.563 33.6931C817.051 33.6931 814.492 33.3061 812.445 33.3061C810.398 33.3061 807.839 33.6044 807.327 33.6044C806.815 33.6044 804.256 33.3498 802.209 33.3498C800.162 33.3498 797.603 33.4488 797.091 33.4488C796.579 33.4488 794.02 33.108 791.973 33.108C789.926 33.108 787.367 33.5259 786.855 33.5259C786.343 33.5259 783.784 32.811 781.737 32.811C779.686 32.811 777.132 33.6314 776.619 33.6314C776.109 33.6314 773.545 32.8277 771.502 32.8277C769.45 32.8277 766.896 33.7741 766.384 33.7741C765.872 33.7741 763.313 33.8307 761.266 33.8307C759.219 33.8307 756.66 33.5324 756.148 33.5324C755.637 33.5324 753.073 32.8084 751.03 32.8084C748.975 32.8084 746.426 33.8255 745.912 33.8255C745.4 33.8255 742.841 33.6159 740.794 33.6159C738.747 33.6159 736.188 33.5799 735.676 33.5799C735.164 33.5799 732.606 33.5684 730.558 33.5684C728.511 33.5684 725.952 33.6339 725.44 33.6339C724.929 33.6339 722.37 33.2559 720.323 33.2559C718.275 33.2559 715.716 33.7522 715.205 33.7522C714.693 33.7522 712.134 33.0193 710.087 33.0193C708.04 33.0193 705.481 33.7188 704.969 33.7188C704.458 33.7188 701.894 33.3202 699.851 33.3202C697.8 33.3202 695.246 33.958 694.733 33.958C694.219 33.958 691.671 32.9242 689.615 32.9242C687.576 32.9242 685.007 33.5195 684.497 33.5195C683.988 33.5195 681.418 32.7737 679.379 32.7737C677.32 32.7737 674.776 33.9605 674.262 33.9605C673.75 33.9605 671.191 33.5465 669.144 33.5465C667.096 33.5465 664.537 33.7394 664.026 33.7394C663.514 33.7394 660.955 32.8702 658.908 32.8702C656.861 32.8702 654.302 33.6905 653.79 33.6905C653.278 33.6905 650.719 33.7702 648.672 33.7702C646.625 33.7702 644.066 33.8834 643.554 33.8834C643.042 33.8834 640.483 33.6417 638.436 33.6417C636.389 33.6417 633.83 33.9978 633.318 33.9978C632.806 33.9978 630.252 33.6275 628.2 33.6275C626.153 33.6275 623.594 33.6725 623.083 33.6725C622.571 33.6725 620.012 33.1492 617.965 33.1492C615.917 33.1492 613.359 33.5555 612.847 33.5555C612.335 33.5555 609.776 33.7844 607.729 33.7844C605.682 33.7844 603.123 33.742 602.611 33.742C602.1 33.742 599.536 32.73 597.493 32.73C595.442 32.73 592.888 33.8628 592.375 33.8628C591.862 33.8628 589.309 32.9332 587.257 32.9332C585.214 32.9332 582.65 33.5889 582.139 33.5889C581.628 33.5889 579.069 32.8804 577.021 32.8804C574.974 32.8804 572.415 33.4719 571.904 33.4719C571.392 33.4719 568.833 33.5658 566.786 33.5658C564.739 33.5658 562.18 33.5902 561.668 33.5902C561.156 33.5902 558.597 33.6095 556.55 33.6095C554.503 33.6095 551.944 33.6172 551.432 33.6172C550.921 33.6172 548.357 33.1466 546.314 33.1466C544.263 33.1466 541.709 33.94 541.196 33.94C540.683 33.94 538.13 33.3472 536.078 33.3472C534.035 33.3472 531.471 33.5092 530.96 33.5092C530.45 33.5092 527.886 33.0335 525.843 33.0335C523.787 33.0335 521.238 33.9091 520.725 33.9091C520.212 33.9091 517.658 32.901 515.607 32.901C513.564 32.901 511 33.7792 510.489 33.7792C509.976 33.7792 507.422 33.4256 505.371 33.4256C503.324 33.4256 500.765 33.4951 500.253 33.4951C499.74 33.4951 497.186 33.8037 495.135 33.8037C493.088 33.8037 490.529 33.9284 490.017 33.9284C489.505 33.9284 486.947 33.7407 484.899 33.7407C482.852 33.7407 480.293 33.931 479.781 33.931C479.267 33.931 476.723 32.8766 474.664 32.8766C472.625 32.8766 470.055 33.4256 469.546 33.4256C469.034 33.4256 466.475 33.6121 464.428 33.6121C462.381 33.6121 459.822 33.4668 459.31 33.4668C458.798 33.4668 456.239 33.7252 454.192 33.7252C452.145 33.7252 449.586 33.9194 449.074 33.9194C448.561 33.9194 446.007 33.3228 443.956 33.3228C441.913 33.3228 439.349 33.6944 438.838 33.6944C438.327 33.6944 435.768 33.3408 433.72 33.3408C431.673 33.3408 429.114 33.8178 428.603 33.8178C428.091 33.8178 425.532 33.5632 423.485 33.5632C421.437 33.5632 418.879 33.6674 418.367 33.6674C417.855 33.6674 415.296 33.8538 413.249 33.8538C411.202 33.8538 408.643 33.4642 408.131 33.4642C407.619 33.4642 405.06 33.2842 403.013 33.2842C400.966 33.2842 398.407 33.5697 397.895 33.5697C397.384 33.5697 394.82 32.8316 392.777 32.8316C390.726 32.8316 388.172 33.7278 387.659 33.7278C387.148 33.7278 384.589 33.2842 382.541 33.2842C380.494 33.2842 377.935 33.5722 377.424 33.5722C376.912 33.5722 374.353 33.6828 372.306 33.6828C370.259 33.6828 367.7 33.8975 367.188 33.8975C366.676 33.8975 364.117 33.7702 362.07 33.7702C360.023 33.7702 357.464 33.8063 356.952 33.8063C356.439 33.8063 353.885 33.3575 351.834 33.3575C349.787 33.3575 347.228 33.4166 346.716 33.4166C346.204 33.4166 343.645 33.5002 341.598 33.5002C339.551 33.5002 336.992 33.7355 336.48 33.7355C335.969 33.7355 333.41 33.5054 331.362 33.5054C329.315 33.5054 326.756 33.7342 326.245 33.7342C325.733 33.7342 323.174 33.6031 321.127 33.6031C319.08 33.6031 316.521 33.6301 316.009 33.6301C315.499 33.6301 312.93 32.7776 310.891 32.7776C308.836 32.7776 306.287 33.9233 305.773 33.9233C305.261 33.9233 302.702 33.6018 300.655 33.6018C298.608 33.6018 296.049 33.5529 295.537 33.5529C295.025 33.5529 292.466 33.5118 290.419 33.5118C288.372 33.5118 285.813 33.8397 285.301 33.8397C284.791 33.8397 282.227 33.0862 280.184 33.0862C278.132 33.0862 275.578 33.9773 275.066 33.9773C274.553 33.9773 271.999 33.5877 269.948 33.5877C267.901 33.5877 265.342 33.4488 264.83 33.4488C264.318 33.4488 261.759 33.5285 259.712 33.5285C257.665 33.5285 255.106 33.6237 254.594 33.6237C254.082 33.6237 251.523 33.7612 249.476 33.7612C247.429 33.7612 244.87 33.3691 244.358 33.3691C243.845 33.3691 241.292 33.9811 239.24 33.9811C237.193 33.9811 234.634 33.5182 234.122 33.5182C233.611 33.5182 231.052 33.0219 229.005 33.0219C226.957 33.0219 224.398 33.5054 223.887 33.5054C223.375 33.5054 220.816 33.189 218.769 33.189C216.722 33.189 214.163 33.5092 213.651 33.5092C213.139 33.5092 210.58 33.3395 208.533 33.3395C206.486 33.3395 203.927 33.6674 203.415 33.6674C202.903 33.6674 200.344 33.6507 198.297 33.6507C196.25 33.6507 193.691 33.6057 193.179 33.6057C192.669 33.6057 190.105 33.2328 188.061 33.2328C186.01 33.2328 183.456 33.8243 182.944 33.8243C182.432 33.8243 179.873 33.8821 177.826 33.8821C175.778 33.8821 173.22 33.7818 172.708 33.7818C172.196 33.7818 169.637 33.7381 167.59 33.7381C165.543 33.7381 162.984 33.5452 162.472 33.5452C161.96 33.5452 159.401 33.2855 157.354 33.2855C155.303 33.2855 152.749 33.7664 152.236 33.7664C151.724 33.7664 149.165 33.9876 147.118 33.9876C145.067 33.9876 142.513 33.5375 142 33.5375C141.489 33.5375 138.93 33.4552 136.882 33.4552C134.835 33.4552 132.276 33.4398 131.765 33.4398C131.253 33.4398 128.694 33.3819 126.647 33.3819C124.6 33.3819 122.041 33.5838 121.529 33.5838C121.017 33.5838 118.458 32.9743 116.411 32.9743C114.364 32.9743 111.805 33.4604 111.293 33.4604C110.781 33.4604 108.222 33.6944 106.175 33.6944C104.128 33.6944 101.569 33.697 101.057 33.697C100.546 33.697 97.9824 32.721 95.9393 32.721C93.8881 32.721 91.3342 33.823 90.8214 33.823C90.3086 33.823 87.7548 33.2341 85.7035 33.2341C83.6605 33.2341 81.0964 33.5671 80.5856 33.5671C80.0749 33.5671 77.5108 33.1775 75.4677 33.1775C73.4165 33.1775 70.8627 33.8551 70.3498 33.8551C69.8381 33.8551 67.2791 33.4719 65.2319 33.4719C63.1848 33.4719 60.6258 33.7921 60.1141 33.7921C59.6012 33.7921 57.0474 33.1389 54.9962 33.1389C52.949 33.1389 50.39 33.652 49.8783 33.652C49.3665 33.652 46.8075 33.5877 44.7604 33.5877C42.7132 33.5877 40.1543 33.4616 39.6425 33.4616C39.1317 33.4616 36.5676 33.0592 34.5246 33.0592C32.4692 33.0592 29.9205 33.9464 29.4067 33.9464C28.8959 33.9464 26.3318 33.9541 24.2888 33.9541C22.2375 33.9541 19.6837 33.3768 19.1709 33.3768C18.6591 33.3768 16.1001 33.7008 14.053 33.7008C12.0058 33.7008 9.44688 33.6815 8.93509 33.6815C8.42331 33.6815 5.86436 33.6905 3.8172 33.6905C1.77004 33.6905 -0.788907 33.3626 -1.3007 33.3626C-1.82682 33.3626 -4.44923 33.7702 -6.5537 33.7702C-8.69503 33.7702 -11.558 34.282 -11.9121 33.778C-12.3298 33.1839 -11.123 29.0294 -11.123 25.8611C-11.123 23.0322 -11.7821 19.4962 -11.7821 18.789C-11.7821 18.0612 -11.0482 14.4133 -11.0482 11.5021C-11.0482 8.58586 -11.8384 4.94437 -11.8384 4.2153C-11.8384 3.4798 -11.6542 -0.189975 -11.6542 -3.13197C-11.6542 -6.10996 -12.0984 -10.0176 -11.7064 -10.5757Z" fill="#091CFF"/>
</svg>
